<svg xmlns="http://www.w3.org/2000/svg" width="25" height="25" fill="none"><path fill="#B30B00" d="M.5 9.186c0-3.04 0-4.56.592-5.722a5.429 5.429 0 0 1 2.372-2.372C4.625.5 6.145.5 9.186.5h6.628c3.04 0 4.56 0 5.722.592a5.428 5.428 0 0 1 2.372 2.372c.592 1.161.592 2.681.592 5.722v6.628c0 3.04 0 4.56-.592 5.722a5.428 5.428 0 0 1-2.372 2.372c-1.161.592-2.681.592-5.722.592H9.186c-3.04 0-4.56 0-5.722-.592a5.428 5.428 0 0 1-2.372-2.372C.5 20.375.5 18.855.5 15.814V9.186Z"/><path fill="#fff" d="M19.391 14.126c-1.12-1.228-4.174-.69-4.912-.614-1.046-1.075-1.783-2.294-2.082-2.755.373-1.152.672-2.448.672-3.677 0-1.152-.448-2.294-1.634-2.294-.448 0-.822.23-1.046.614-.523.922-.299 2.755.523 4.666-.448 1.382-1.195 3.446-2.082 5.05-1.196.46-3.801 1.68-4.025 3.062-.075.384.074.844.373 1.075.3.307.673.384 1.046.384 1.56 0 3.128-2.218 4.25-4.215.896-.307 2.306-.768 3.725-.998 1.634 1.536 3.129 1.757 3.876 1.757 1.046 0 1.42-.461 1.56-.845.195-.365.055-.902-.244-1.21Zm-1.045.768c-.075.308-.449.615-1.121.461-.822-.23-1.56-.614-2.157-1.152.523-.077 1.783-.23 2.68-.077.299.077.672.308.598.768Zm-7.229-9.187a.41.41 0 0 1 .374-.23c.374 0 .448.46.448.845-.074.921-.224 1.91-.523 2.755-.597-1.68-.523-2.909-.299-3.37Zm-.074 8.65c.373-.691.822-1.987.971-2.448.374.691 1.046 1.459 1.345 1.833.074-.067-1.27.23-2.316.615Zm-2.53 1.766c-1.037 1.68-2.009 2.755-2.606 2.755-.075 0-.224 0-.3-.076-.074-.154-.149-.308-.074-.461.075-.615 1.27-1.46 2.98-2.218Z"/></svg>
