<svg xmlns="http://www.w3.org/2000/svg" viewBox="0 0 24 24" width="24" height="24" fill="none">
  <path fill="#000" d="M1.259 11.629c-.136-2.308-.186-4.67-.035-7.003.036-.543.1-1.093.194-1.648.102-.596.267-1.343.657-1.77.439-.481 1.204-.015 1.608.271.498.353 1.03.804 1.595 1.351.629.608 1.25 1.211 1.863 1.81.265.26.557.516.874.769.216.171.51.385.797.303 2.13-.61 4.266-.608 6.404.008.258.074.556-.13.775-.304.316-.251.61-.51.884-.776l1.817-1.764a14.216 14.216 0 0 1 1.71-1.439c.222-.155.462-.279.72-.37.766-.27 1.08.423 1.253.998a9.29 9.29 0 0 1 .33 1.695 34 34 0 0 1 .176 3.653 69.613 69.613 0 0 1-.138 4.236.105.105 0 0 0 .012.054 14.248 14.248 0 0 1 1.198 3.265c.139.586-.052 1.255-.312 1.801-.647 1.361-1.755 2.564-2.92 3.537a15.51 15.51 0 0 1-4.541 2.66c-2.405.897-4.823 1.016-7.255.356-2.228-.604-4.325-1.828-6.047-3.37C1.866 19.043.91 17.95.341 16.717c-.243-.526-.428-1.178-.298-1.734a14.234 14.234 0 0 1 1.2-3.278.143.143 0 0 0 .016-.077Zm3.551 3.829c.268.676.71 1.167 1.33 1.473.714.354 1.63.503 2.376.232.972-.353.872-1.389.349-2.07-.58-.755-1.54-1.192-2.477-1.338-1.175-.182-2.105.37-1.578 1.703Zm9.922-.077c-.383.695-.258 1.5.558 1.789.709.251 1.598.12 2.279-.2.779-.368 1.282-.981 1.51-1.84.33-1.247-.851-1.528-1.782-1.351-1.016.193-2.071.705-2.565 1.602Zm-3.39 4.974c.317.16.624.185.92.073.418-.157.817-.448 1.197-.873.513-.575-.082-.8-.547-.87a6.506 6.506 0 0 0-2.116.013c-.344.06-.914.251-.573.725.277.384.65.695 1.12.932Z"/>
</svg>