<svg xmlns="http://www.w3.org/2000/svg" width="24" height="20" fill="none"><path fill="#00D6B9" d="m12.474 10.607.06-.058.12-.117.081-.08.251-.253.334-.332.277-.283.269-.252.281-.278.251-.253.357-.357.209-.197c.128-.119.25-.235.399-.344.148-.108.251-.2.387-.293.183-.134.374-.258.57-.371a7.596 7.596 0 0 1 1.5-.693l.168-.055a14.204 14.204 0 0 0-2.665-5.382 1.285 1.285 0 0 0-1.005-.483h-10.3a.193.193 0 0 0-.183.135.196.196 0 0 0 .07.217 30.159 30.159 0 0 1 8.539 9.751l.03-.022Z"/><path fill="#3370FF" d="M8.391 19.726c2.523 0 5-.677 7.174-1.964a14.19 14.19 0 0 0 5.192-5.354l.251-.462c-.12.232-.256.455-.404.67-.053.076-.108.149-.164.222-.055.074-.14.177-.216.253-.075.076-.118.132-.178.197a5.31 5.31 0 0 1-.387.37c-.075.062-.15.126-.229.186a4.75 4.75 0 0 1-.279.2c-.095.063-.12.08-.183.119l-.193.114a4.834 4.834 0 0 1-.41.207c-.14.063-.251.103-.367.149a5.249 5.249 0 0 1-1.51.323 3.021 3.021 0 0 1-.502 0c-.17-.015-.37-.015-.558-.035a6.425 6.425 0 0 1-.776-.136l-.191-.049-.53-.149-.251-.078-.392-.119-.342-.078-.301-.101-.201-.071-.252-.086-.178-.066a9.772 9.772 0 0 1-.35-.128l-.203-.076-.268-.107-.287-.113-.183-.076-.229-.096-.176-.076-.183-.078-.159-.071-.145-.066-.146-.066-.15-.07-.192-.089-.19-.106-.214-.104-.181-.088a29.711 29.711 0 0 1-8.424-6.32.193.193 0 0 0-.334.135V16.276a1.29 1.29 0 0 0 .568 1.072 14.009 14.009 0 0 0 7.818 2.37"/><path fill="#133C9A" d="M24 6.84a8.088 8.088 0 0 0-5.778-.53l-.252.073-.168.055a7.568 7.568 0 0 0-.912.375 7.925 7.925 0 0 0-.588.318 6.491 6.491 0 0 0-.57.372c-.133.093-.251.19-.387.293a5.653 5.653 0 0 0-.4.344l-.208.197-.334.356-.251.253-.287.285-.269.253-.284.286-.334.331-.25.253-.081.08-.12.117-.061.058-.09.086-.101.094c-.885.819-1.87 1.521-2.932 2.09l.191.088.15.071.146.066.146.066.158.07.184.079.176.075.228.097.184.075.286.114.269.106.203.076c.116.046.234.089.35.13l.178.065.251.086.206.07.302.102.319.1.392.12.251.078.53.149.191.048c.12.03.241.056.362.076a6.003 6.003 0 0 0 .972.096c.183.002.337 0 .503 0 .165 0 .314-.03.47-.053.212-.034.422-.08.63-.137a6.02 6.02 0 0 0 .776-.283c.116-.053.276-.131.41-.207l.193-.114a7.54 7.54 0 0 0 .462-.319c.09-.068.154-.123.229-.186.133-.117.251-.253.387-.37.06-.065.12-.128.178-.197.058-.068.146-.174.216-.252.07-.079.11-.147.164-.223.147-.213.281-.435.402-.665l.135-.278 1.256-2.494A7.933 7.933 0 0 1 24 6.84Z"/></svg>
